<svg id="Layer_1" data-name="Layer 1" xmlns="http://www.w3.org/2000/svg" xmlns:xlink="http://www.w3.org/1999/xlink" viewBox="0 0 687.62 122.93"><defs><style>.cls-1{fill:none;}.cls-2{fill:#0072ce;}.cls-2,.cls-4{fill-rule:evenodd;}.cls-3{clip-path:url(#clip-path);}</style><clipPath id="clip-path" transform="translate(-27.54 -313.63)"><rect id="SVGID" class="cls-1" x="161.51" y="359.66" width="561.49" height="78.4"/></clipPath></defs><title>playstationstorelogo-freelogovectors.net</title><path class="cls-2" d="M121.9,344.05a.9.9,0,0,0-1-.81l-9.72-1.4-.28,0-13.53,0c-.83-6.34-3.23-16.9-7.77-23-2.53-3.42-5.47-5.14-8.73-5.12a9,9,0,0,0-5.61,1.9,8.85,8.85,0,0,0-5.48-1.26c-9.16.93-12,14.41-12.62,27.54q-12.06,0-24.12.29a1.07,1.07,0,0,0-1.09,1c-.22,3.68-1.07,18.12-2.27,40.32-1.27,23.48-2,36.29-2.17,39.67a1,1,0,0,0,.88,1l38.72,5.87,38.27,5.8a1.24,1.24,0,0,0,.88-.19h0l18.91-12.09A1.56,1.56,0,0,0,126,422Zm-41-26.74a6.47,6.47,0,0,1,4.82,2.48c4.65,5.07,7,15.9,8,22H87.89c-1.31-8.1-4.57-18.42-9.59-23.79a5.7,5.7,0,0,1,2.63-.67Zm-5.38,3.11c4.38,4.54,7.36,13.91,8.62,21.35H70c.42-6.8,1.88-16.45,5.58-21.34ZM59,393.18l-10.49,3.76c-1.85.66-2.13,1.6-.64,2.09a10.69,10.69,0,0,0,6.09-.32l5-1.81v5.28l-1,.17a32.77,32.77,0,0,1-15.67-1.26c-4.92-1.38-5.75-4.28-3.5-5.95a24.25,24.25,0,0,1,5.6-2.68L59,387.26Zm11.24-75.25a5,5,0,0,1,2.42.37c-4.59,6.26-5.92,17.3-6.29,23.47H60.86c.69-14.7,4-23.3,9.33-23.85Zm.91,52.65v37.7l-10.18-3.23v-45a124.2,124.2,0,0,1,14,3.84c8.61,3,11.53,6.65,11.53,14.92,0,8.09-5,11.16-11.32,8.09V371.88c0-1.76-.33-3.4-2-3.86-1.27-.41-2.06.77-2.06,2.55ZM99.48,397c-1.24,1.53-4.23,2.64-4.23,2.64l-22.21,8V401.7l16.35-5.82c1.85-.68,2.13-1.62.63-2.11a11.1,11.1,0,0,0-6.1.32L73,397.93v-6.12l.62-.22A37.21,37.21,0,0,1,81.24,390a32.37,32.37,0,0,1,14.11,1.67c4.8,1.53,5.34,3.75,4.13,5.3Z" transform="translate(-27.54 -313.63)"/><g class="cls-3"><path class="cls-4" d="M546.49,416.5l-2-5.92v5.92h-1v-7.28h1.33l2.12,6.2,2.12-6.2h1.33v7.28h-.95v-5.92l-2,5.92ZM539.22,410H536.8v-.82h5.78V410h-2.4v6.46h-.95V410ZM686.4,398.17c.46,8.59,5.75,14.14,14.34,14.14a29.88,29.88,0,0,0,10.9-2l1.07,4.94a32.54,32.54,0,0,1-12.12,2.13c-13.43,0-20.49-9-20.49-20.91,0-12.17,7-21.07,18.26-21.07s16.8,7.76,16.8,19.62v3.12Zm0-5.09h22.85v-.31c0-7.68-4.36-12.24-10.81-12.24-7.29,0-11.36,5.17-12,12.54Zm-6.29-12.32a21.13,21.13,0,0,0-3.37-.23c-5.38,0-9.67,3.12-9.67,12.47v23.49h-6.52V376.35h6.28v5.4h.08c2-4.26,5.37-6.32,10.59-6.32a21,21,0,0,1,2.92.16Zm-43.65,36.65c-11.58,0-18.79-8-18.79-21.07s7.21-20.91,18.79-20.91,18.79,7.84,18.79,20.91S648,417.41,636.46,417.41Zm0-36.88c-8.44,0-12.27,6.54-12.27,15.81s4,16,12.27,16c8.44,0,12.27-6.61,12.27-16s-3.83-15.81-12.27-15.81Zm-44.18-4.19h7.21V366.23H606v10.11h9.36v5.1H606v24c0,5.48.54,6.47,5.14,6.47a36.81,36.81,0,0,0,4.29-.3v4.86a43.63,43.63,0,0,1-6.13.53c-8.44,0-9.82-4-9.82-11.17v-24.4h-7.21Zm-6-7.22a32.69,32.69,0,0,0-12-2.28c-5.21,0-11,2-11,8.29,0,4.86,2.91,7.52,11.43,10.8,10.35,3.95,15.73,8.05,15.73,16.49,0,10.72-9.36,15-18.42,15a42.08,42.08,0,0,1-16.18-3.35l1.68-5.7a34.5,34.5,0,0,0,14.65,3.5c6.6,0,11.59-2.89,11.59-9,0-5.55-4.83-8.36-13.12-11.71-9.36-3.72-14-8.37-14-15.59,0-10,9.51-14.29,17.8-14.29a38.5,38.5,0,0,1,13.58,2.28Zm-319.14,6.07h9.9a.27.27,0,0,1,.22.16L286.45,402q.06.14.12,0L297,375.34a.25.25,0,0,1,.24-.15h8.94c.1,0,.15.07.11.15L281.69,436.4a.25.25,0,0,1-.23.16h-8.19a.11.11,0,0,1-.11-.16L281,416.26a.55.55,0,0,0,0-.31l-14-40.61a.11.11,0,0,1,.11-.15Zm207.57,0c15.75,0,17.76,11.05,17.76,20.67s-2,20.67-17.77,20.67S457,405.48,457,395.85,459,375.18,474.73,375.18Zm6,32.68c1.36-2.18,2-6,2-12,0-7.15-.89-11.19-2.87-13.13-1.17-1.13-2.7-1.62-5.1-1.62s-3.94.49-5.1,1.62c-2,1.94-2.87,6-2.87,13.08v.05c0,6,.63,9.82,2,12,1.5,2.41,3.87,2.74,6,2.74s4.5-.33,6-2.74Zm35-32.67c15,0,17,11,17,20.61v20.53a.17.17,0,0,1-.17.16h-9.42a.18.18,0,0,1-.18-.16s0-21.37,0-21.61c0-5.56-.58-9.08-1.81-11.1-1.36-2.22-3.5-2.52-5.42-2.52h-7.19s-.07,0-.07.06l0,35.17a.17.17,0,0,1-.17.16h-9.42a.17.17,0,0,1-.17-.16v-41a.14.14,0,0,1,.16-.16h16.84Zm-65.2-13a.16.16,0,0,1,.16.16v7.83a.14.14,0,0,1-.16.16h-9.44a.14.14,0,0,1-.16-.16v-7.83a.16.16,0,0,1,.16-.16Zm0,13a.15.15,0,0,1,.16.16v41a.17.17,0,0,1-.16.16h-9.44a.17.17,0,0,1-.16-.16v-41a.16.16,0,0,1,.16-.16Zm-15.6,0a.14.14,0,0,1,.16.16v5.57a.17.17,0,0,1-.16.17s-7.09,0-10.21,0a.06.06,0,0,0-.06.06v24.07c0,5.27,2.48,5.32,3.54,5.34h4.16a.17.17,0,0,1,.16.18v5.59a.16.16,0,0,1-.16.16h-6.77c-6.19,0-10.7-5.19-10.7-12.36v-35.8a.18.18,0,0,1,.18-.16h9.43a.17.17,0,0,1,.16.16v6.79s0,.07.06.07Zm-65.86,0c.11,0,.17.05.17.16v5.57a.18.18,0,0,1-.17.17s-7.08,0-10.2,0a.07.07,0,0,0-.07.06v24.07c0,5.27,2.49,5.32,3.55,5.34h4.15a.18.18,0,0,1,.17.18v5.59a.17.17,0,0,1-.17.16h-6.76c-6.19,0-10.69-5.19-10.69-12.36v-35.8a.17.17,0,0,1,.17-.16h9.43a.17.17,0,0,1,.17.16l0,6.76,0,0s0,.07.05.07Zm37.93.16v41a.16.16,0,0,1-.17.16H397.4a.15.15,0,0,1-.16-.16V381.19a.08.08,0,0,0-.07-.09H390c-1.91,0-4.05.32-5.4,2.72-1.24,2.18-1.81,6-1.81,12v9c0,5.12,2,5.76,3.55,5.79h6.54a.16.16,0,0,1,.17.17v5.6c0,.11-.06.16-.17.16h-9.16c-6.19,0-10.69-5.2-10.69-12.37V395.8c0-9.63,1.94-20.61,17-20.61h16.83a.16.16,0,0,1,.16.16Zm-77.29,9.46c4,.31,7,1.64,8.94,4.08,2.31,2.83,3.48,6.79,3.48,11.75,0,13.8-8.57,15.85-13.69,15.85H311.87a.16.16,0,0,1-.17-.16v-5.6a.18.18,0,0,1,.17-.17h13.34c6.43,0,7.16-5.4,7.16-8.38v-1.34c0-4.75-2.18-7.86-5.69-8.13l-4.64-.35c-7.43-.55-12.43-6.35-12.43-14.4v-.43c0-10.19,6.26-15.3,15-15.3h14.19a.16.16,0,0,1,.16.16V368a.16.16,0,0,1-.16.17H326c-4,0-7,1.79-7,8.41,0,5.67,2.59,7.58,6.07,7.88l4.65.35Zm-67.86-9.46v41a.14.14,0,0,1-.16.16h-9.43a.15.15,0,0,1-.17-.16V381.19c0-.05,0-.09-.06-.09h-7.18c-1.91,0-4.06.32-5.42,2.72-1.23,2.18-1.8,6-1.8,12v9c0,5.12,2,5.76,3.55,5.79h6.55a.16.16,0,0,1,.16.17v5.6c0,.11-.06.16-.17.16h-9.15c-6.2,0-10.7-5.2-10.7-12.37V395.8c0-9.63,1.93-20.61,17-20.61h16.83a.14.14,0,0,1,.16.16Zm-41.16-13.12a.16.16,0,0,1,.16.16v53.94a.15.15,0,0,1-.16.16h-9.43a.15.15,0,0,1-.16-.16V362.39a.17.17,0,0,1,.16-.17h9.43Zm-28.42,0c7.91,0,13,6.68,13,17,0,5.33-1.46,9.77-4.22,12.84a11.94,11.94,0,0,1-8.8,4.1H183a.15.15,0,0,1-.17-.17v-5.6a.17.17,0,0,1,.17-.16h6.47c3.94,0,6.1-3.92,6.1-11.05s-2.16-11.05-6.09-11.05l-10.78,0s-.06.05-.06.08v48.08a.16.16,0,0,1-.16.16H169a.17.17,0,0,1-.17-.16V362.39a.17.17,0,0,1,.17-.16Z" transform="translate(-27.54 -313.63)"/></g></svg>